Coordinates
version=1
nRows=38
nColumns=12
inDegrees=yes

Units are S.I. units (second, meters, Newtons, ...)
Angles are in degrees

endheader
time	SC_y	SC_z	SC_x	AC_y	AC_z	AC_x	GH_y	GH_z	GH_yy	EL_x	PS_y
       0.0              -44.79          11.51          44.38          69.62         -4.168         0.8652         -83.77          38.53         -17.72          18.17          101.2
   0.01041              -44.79          11.51          44.38          69.61         -4.167         0.8649         -83.78          38.53         -17.74          18.17          101.2
   0.02083              -44.78          11.51          44.37          69.61         -4.167         0.8645         -83.79          38.53         -17.77          18.17          101.2
   0.03124              -44.78          11.51          44.37          69.61         -4.166         0.8642          -83.8          38.53         -17.79          18.17          101.2
   0.04165              -44.77          11.51          44.36          69.61         -4.165         0.8638         -83.81          38.53         -17.81          18.17          101.2
   0.05207              -44.77           11.5          44.36           69.6         -4.165         0.8634         -83.82          38.53         -17.84          18.18          101.2
   0.06248              -44.76           11.5          44.35           69.6         -4.164         0.8629         -83.83          38.53         -17.87          18.18          101.2
    0.0729              -44.76           11.5          44.35           69.6         -4.163         0.8625         -83.84          38.53          -17.9          18.18          101.2
   0.08331              -44.75           11.5          44.34          69.59         -4.162          0.862         -83.86          38.53         -17.93          18.18          101.2
   0.09372              -44.74           11.5          44.34          69.59         -4.161         0.8615         -83.87          38.53         -17.96          18.19          101.2
    0.1041              -44.74          11.49          44.33          69.59          -4.16         0.8609         -83.89          38.53          -18.0          18.19          101.2
    0.1146              -44.73          11.49          44.32          69.58         -4.159         0.8603          -83.9          38.53         -18.04          18.19          101.2
     0.125              -44.72          11.49          44.31          69.58         -4.158         0.8596         -83.92          38.54         -18.08          18.19          101.2
    0.1354              -44.71          11.49           44.3          69.57         -4.157         0.8589         -83.94          38.54         -18.12           18.2          101.2
    0.1458               -44.7          11.48          44.29          69.57         -4.156         0.8581         -83.96          38.54         -18.17           18.2          101.3
    0.1562              -44.69          11.48          44.28          69.56         -4.154         0.8573         -83.98          38.54         -18.23           18.2          101.3
    0.1666              -44.68          11.47          44.27          69.55         -4.152         0.8564          -84.0          38.54         -18.29          18.21          101.3
     0.177              -44.67          11.47          44.26          69.55         -4.151         0.8554         -84.03          38.54         -18.35          18.21          101.3
    0.1874              -44.65          11.47          44.25          69.54         -4.149         0.8543         -84.06          38.54         -18.42          18.22          101.3
    0.1979              -44.64          11.46          44.23          69.53         -4.147         0.8531         -84.09          38.54          -18.5          18.22          101.3
    0.2083              -44.62          11.46          44.22          69.52         -4.144         0.8518         -84.12          38.55         -18.58          18.23          101.3
    0.2187               -44.6          11.45           44.2          69.51         -4.142         0.8503         -84.16          38.55         -18.67          18.24          101.4
    0.2291              -44.58          11.44          44.18           69.5         -4.139         0.8487          -84.2          38.55         -18.77          18.24          101.4
    0.2395              -44.56          11.44          44.16          69.49         -4.136          0.847         -84.25          38.55         -18.88          18.25          101.4
    0.2499              -44.54          11.43          44.13          69.47         -4.133          0.845          -84.3          38.56         -19.01          18.26          101.4
    0.2603              -44.51          11.42           44.1          69.46         -4.129         0.8428         -84.36          38.56         -19.15          18.27          101.5
    0.2708              -44.48          11.41          44.07          69.44         -4.124         0.8404         -84.42          38.56          -19.3          18.28          101.5
    0.2812              -44.44           11.4          44.04          69.42          -4.12         0.8376          -84.5          38.57         -19.48          18.29          101.5
    0.2916               -44.4          11.38           44.0           69.4         -4.114         0.8345         -84.58          38.57         -19.68          18.31          101.6
     0.302              -44.36          11.37          43.96          69.37         -4.108          0.831         -84.67          38.58          -19.9          18.32          101.6
    0.3124              -44.31          11.35          43.91          69.34         -4.101          0.827         -84.78          38.58         -20.16          18.34          101.7
    0.3228              -44.25          11.33          43.85          69.31         -4.093         0.8223          -84.9          38.59         -20.46          18.36          101.8
    0.3332              -44.18          11.31          43.78          69.27         -4.084          0.817         -85.04           38.6          -20.8          18.39          101.8
    0.3437               -44.1          11.29          43.71          69.23         -4.073         0.8108          -85.2           38.6         -21.19          18.41          101.9
    0.3541              -44.01          11.26          43.62          69.18          -4.06         0.8035         -85.39          38.61         -21.66          18.45          102.0
    0.3645               -43.9          11.22          43.51          69.11         -4.045          0.795         -85.62          38.63          -22.2          18.48          102.1
    0.3749              -43.77          11.18          43.38          69.04         -4.027         0.7848         -85.88          38.64         -22.85          18.53          102.3
    0.3853              -43.62          11.13          43.23          68.96         -4.006         0.7726          -86.2          38.66         -23.63          18.59          102.5
